<mxfile host="app.diagrams.net" agent="Mozilla/5.0 (Windows NT 10.0; Win64; x64) AppleWebKit/537.36 (KHTML, like Gecko) Chrome/127.0.0.0 Safari/537.36" version="24.7.6">
  <diagram name="Page-1" id="Vpz9J0QDf26ixWNuGLwc">
    <mxGraphModel dx="1259" dy="1831" grid="1" gridSize="10" guides="1" tooltips="1" connect="1" arrows="1" fold="1" page="1" pageScale="1" pageWidth="827" pageHeight="1169" math="0" shadow="0">
      <root>
        <mxCell id="0" />
        <mxCell id="1" parent="0" />
        <mxCell id="XQ9nvu6aSsjh0hOFuqJx-2" value="Person" style="swimlane;fontStyle=2;align=center;verticalAlign=top;childLayout=stackLayout;horizontal=1;startSize=26;horizontalStack=0;resizeParent=1;resizeLast=0;collapsible=1;marginBottom=0;rounded=0;shadow=0;strokeWidth=1;" parent="1" vertex="1">
          <mxGeometry x="360" y="30" width="260" height="304" as="geometry">
            <mxRectangle x="230" y="140" width="160" height="26" as="alternateBounds" />
          </mxGeometry>
        </mxCell>
        <mxCell id="XQ9nvu6aSsjh0hOFuqJx-3" value="- name: string" style="text;align=left;verticalAlign=top;spacingLeft=4;spacingRight=4;overflow=hidden;rotatable=0;points=[[0,0.5],[1,0.5]];portConstraint=eastwest;" parent="XQ9nvu6aSsjh0hOFuqJx-2" vertex="1">
          <mxGeometry y="26" width="260" height="26" as="geometry" />
        </mxCell>
        <mxCell id="qVerp7B6_mH-gPQAltYo-2" value="- surname: string" style="text;align=left;verticalAlign=top;spacingLeft=4;spacingRight=4;overflow=hidden;rotatable=0;points=[[0,0.5],[1,0.5]];portConstraint=eastwest;rounded=0;shadow=0;html=0;" parent="XQ9nvu6aSsjh0hOFuqJx-2" vertex="1">
          <mxGeometry y="52" width="260" height="26" as="geometry" />
        </mxCell>
        <mxCell id="XQ9nvu6aSsjh0hOFuqJx-4" value="- surname: string" style="text;align=left;verticalAlign=top;spacingLeft=4;spacingRight=4;overflow=hidden;rotatable=0;points=[[0,0.5],[1,0.5]];portConstraint=eastwest;rounded=0;shadow=0;html=0;" parent="XQ9nvu6aSsjh0hOFuqJx-2" vertex="1">
          <mxGeometry y="78" width="260" height="26" as="geometry" />
        </mxCell>
        <mxCell id="XQ9nvu6aSsjh0hOFuqJx-5" value="- age: int&#xa;&#xa;" style="text;align=left;verticalAlign=top;spacingLeft=4;spacingRight=4;overflow=hidden;rotatable=0;points=[[0,0.5],[1,0.5]];portConstraint=eastwest;rounded=0;shadow=0;html=0;" parent="XQ9nvu6aSsjh0hOFuqJx-2" vertex="1">
          <mxGeometry y="104" width="260" height="26" as="geometry" />
        </mxCell>
        <mxCell id="pg1mxWmUHJXe1H1death-4" value="- address : Address" style="text;align=left;verticalAlign=top;spacingLeft=4;spacingRight=4;overflow=hidden;rotatable=0;points=[[0,0.5],[1,0.5]];portConstraint=eastwest;rounded=0;shadow=0;html=0;" parent="XQ9nvu6aSsjh0hOFuqJx-2" vertex="1">
          <mxGeometry y="130" width="260" height="26" as="geometry" />
        </mxCell>
        <mxCell id="pg1mxWmUHJXe1H1death-68" value="- phone : int" style="text;align=left;verticalAlign=top;spacingLeft=4;spacingRight=4;overflow=hidden;rotatable=0;points=[[0,0.5],[1,0.5]];portConstraint=eastwest;" parent="XQ9nvu6aSsjh0hOFuqJx-2" vertex="1">
          <mxGeometry y="156" width="260" height="26" as="geometry" />
        </mxCell>
        <mxCell id="pg1mxWmUHJXe1H1death-69" value="- mail : string" style="text;align=left;verticalAlign=top;spacingLeft=4;spacingRight=4;overflow=hidden;rotatable=0;points=[[0,0.5],[1,0.5]];portConstraint=eastwest;" parent="XQ9nvu6aSsjh0hOFuqJx-2" vertex="1">
          <mxGeometry y="182" width="260" height="26" as="geometry" />
        </mxCell>
        <mxCell id="pg1mxWmUHJXe1H1death-46" value="- arrival_date: date" style="text;align=left;verticalAlign=top;spacingLeft=4;spacingRight=4;overflow=hidden;rotatable=0;points=[[0,0.5],[1,0.5]];portConstraint=eastwest;rounded=0;shadow=0;html=0;" parent="XQ9nvu6aSsjh0hOFuqJx-2" vertex="1">
          <mxGeometry y="208" width="260" height="26" as="geometry" />
        </mxCell>
        <mxCell id="XQ9nvu6aSsjh0hOFuqJx-6" value="" style="line;html=1;strokeWidth=1;align=left;verticalAlign=middle;spacingTop=-1;spacingLeft=3;spacingRight=3;rotatable=0;labelPosition=right;points=[];portConstraint=eastwest;" parent="XQ9nvu6aSsjh0hOFuqJx-2" vertex="1">
          <mxGeometry y="234" width="260" height="20" as="geometry" />
        </mxCell>
        <mxCell id="XQ9nvu6aSsjh0hOFuqJx-7" value="+ get_complete_name() : string" style="text;align=left;verticalAlign=top;spacingLeft=4;spacingRight=4;overflow=hidden;rotatable=0;points=[[0,0.5],[1,0.5]];portConstraint=eastwest;" parent="XQ9nvu6aSsjh0hOFuqJx-2" vertex="1">
          <mxGeometry y="254" width="260" height="18" as="geometry" />
        </mxCell>
        <mxCell id="QH-RMa6fuv2VY8GXqJA8-2" value="+ modify_address(new_address : Address)" style="text;align=left;verticalAlign=top;spacingLeft=4;spacingRight=4;overflow=hidden;rotatable=0;points=[[0,0.5],[1,0.5]];portConstraint=eastwest;" parent="XQ9nvu6aSsjh0hOFuqJx-2" vertex="1">
          <mxGeometry y="272" width="260" height="32" as="geometry" />
        </mxCell>
        <mxCell id="XQ9nvu6aSsjh0hOFuqJx-8" value="Student" style="swimlane;fontStyle=0;align=center;verticalAlign=top;childLayout=stackLayout;horizontal=1;startSize=26;horizontalStack=0;resizeParent=1;resizeLast=0;collapsible=1;marginBottom=0;rounded=0;shadow=0;strokeWidth=1;" parent="1" vertex="1">
          <mxGeometry x="190" y="430" width="220" height="140" as="geometry">
            <mxRectangle x="130" y="380" width="160" height="26" as="alternateBounds" />
          </mxGeometry>
        </mxCell>
        <mxCell id="XQ9nvu6aSsjh0hOFuqJx-9" value="- id : int" style="text;align=left;verticalAlign=top;spacingLeft=4;spacingRight=4;overflow=hidden;rotatable=0;points=[[0,0.5],[1,0.5]];portConstraint=eastwest;" parent="XQ9nvu6aSsjh0hOFuqJx-8" vertex="1">
          <mxGeometry y="26" width="220" height="24" as="geometry" />
        </mxCell>
        <mxCell id="pg1mxWmUHJXe1H1death-65" value="- parent : Parents" style="text;align=left;verticalAlign=top;spacingLeft=4;spacingRight=4;overflow=hidden;rotatable=0;points=[[0,0.5],[1,0.5]];portConstraint=eastwest;" parent="XQ9nvu6aSsjh0hOFuqJx-8" vertex="1">
          <mxGeometry y="50" width="220" height="26" as="geometry" />
        </mxCell>
        <mxCell id="pg1mxWmUHJXe1H1death-39" value="- academic_Record : Academic_Record" style="text;align=left;verticalAlign=top;spacingLeft=4;spacingRight=4;overflow=hidden;rotatable=0;points=[[0,0.5],[1,0.5]];portConstraint=eastwest;" parent="XQ9nvu6aSsjh0hOFuqJx-8" vertex="1">
          <mxGeometry y="76" width="220" height="26" as="geometry" />
        </mxCell>
        <mxCell id="XQ9nvu6aSsjh0hOFuqJx-11" value="" style="line;html=1;strokeWidth=1;align=left;verticalAlign=middle;spacingTop=-1;spacingLeft=3;spacingRight=3;rotatable=0;labelPosition=right;points=[];portConstraint=eastwest;" parent="XQ9nvu6aSsjh0hOFuqJx-8" vertex="1">
          <mxGeometry y="102" width="220" height="8" as="geometry" />
        </mxCell>
        <mxCell id="QH-RMa6fuv2VY8GXqJA8-4" value="+ get_details() : string" style="text;align=left;verticalAlign=top;spacingLeft=4;spacingRight=4;overflow=hidden;rotatable=0;points=[[0,0.5],[1,0.5]];portConstraint=eastwest;" parent="XQ9nvu6aSsjh0hOFuqJx-8" vertex="1">
          <mxGeometry y="110" width="220" height="30" as="geometry" />
        </mxCell>
        <mxCell id="XQ9nvu6aSsjh0hOFuqJx-14" value="" style="endArrow=block;endSize=10;endFill=0;shadow=0;strokeWidth=1;rounded=0;curved=0;edgeStyle=elbowEdgeStyle;elbow=vertical;" parent="1" source="XQ9nvu6aSsjh0hOFuqJx-8" target="XQ9nvu6aSsjh0hOFuqJx-2" edge="1">
          <mxGeometry width="160" relative="1" as="geometry">
            <mxPoint x="425" y="353" as="sourcePoint" />
            <mxPoint x="425" y="353" as="targetPoint" />
          </mxGeometry>
        </mxCell>
        <mxCell id="XQ9nvu6aSsjh0hOFuqJx-15" value="Teacher" style="swimlane;fontStyle=0;align=center;verticalAlign=top;childLayout=stackLayout;horizontal=1;startSize=26;horizontalStack=0;resizeParent=1;resizeLast=0;collapsible=1;marginBottom=0;rounded=0;shadow=0;strokeWidth=1;" parent="1" vertex="1">
          <mxGeometry x="575" y="450" width="160" height="86" as="geometry">
            <mxRectangle x="340" y="380" width="170" height="26" as="alternateBounds" />
          </mxGeometry>
        </mxCell>
        <mxCell id="XQ9nvu6aSsjh0hOFuqJx-17" value="" style="line;html=1;strokeWidth=1;align=left;verticalAlign=middle;spacingTop=-1;spacingLeft=3;spacingRight=3;rotatable=0;labelPosition=right;points=[];portConstraint=eastwest;" parent="XQ9nvu6aSsjh0hOFuqJx-15" vertex="1">
          <mxGeometry y="26" width="160" height="8" as="geometry" />
        </mxCell>
        <mxCell id="QH-RMa6fuv2VY8GXqJA8-3" value="+ get_details() : string" style="text;align=left;verticalAlign=top;spacingLeft=4;spacingRight=4;overflow=hidden;rotatable=0;points=[[0,0.5],[1,0.5]];portConstraint=eastwest;" parent="XQ9nvu6aSsjh0hOFuqJx-15" vertex="1">
          <mxGeometry y="34" width="160" height="26" as="geometry" />
        </mxCell>
        <mxCell id="XQ9nvu6aSsjh0hOFuqJx-18" value="" style="endArrow=block;endSize=10;endFill=0;shadow=0;strokeWidth=1;rounded=0;curved=0;edgeStyle=elbowEdgeStyle;elbow=vertical;" parent="1" source="XQ9nvu6aSsjh0hOFuqJx-15" target="XQ9nvu6aSsjh0hOFuqJx-2" edge="1">
          <mxGeometry width="160" relative="1" as="geometry">
            <mxPoint x="435" y="523" as="sourcePoint" />
            <mxPoint x="535" y="421" as="targetPoint" />
          </mxGeometry>
        </mxCell>
        <mxCell id="XQ9nvu6aSsjh0hOFuqJx-19" value="Address" style="swimlane;fontStyle=0;align=center;verticalAlign=top;childLayout=stackLayout;horizontal=1;startSize=26;horizontalStack=0;resizeParent=1;resizeLast=0;collapsible=1;marginBottom=0;rounded=0;shadow=0;strokeWidth=1;" parent="1" vertex="1">
          <mxGeometry x="45" y="40" width="160" height="140" as="geometry">
            <mxRectangle x="550" y="140" width="160" height="26" as="alternateBounds" />
          </mxGeometry>
        </mxCell>
        <mxCell id="XQ9nvu6aSsjh0hOFuqJx-20" value="- street: string" style="text;align=left;verticalAlign=top;spacingLeft=4;spacingRight=4;overflow=hidden;rotatable=0;points=[[0,0.5],[1,0.5]];portConstraint=eastwest;" parent="XQ9nvu6aSsjh0hOFuqJx-19" vertex="1">
          <mxGeometry y="26" width="160" height="26" as="geometry" />
        </mxCell>
        <mxCell id="XQ9nvu6aSsjh0hOFuqJx-21" value="- city: string" style="text;align=left;verticalAlign=top;spacingLeft=4;spacingRight=4;overflow=hidden;rotatable=0;points=[[0,0.5],[1,0.5]];portConstraint=eastwest;rounded=0;shadow=0;html=0;" parent="XQ9nvu6aSsjh0hOFuqJx-19" vertex="1">
          <mxGeometry y="52" width="160" height="26" as="geometry" />
        </mxCell>
        <mxCell id="XQ9nvu6aSsjh0hOFuqJx-23" value="- postal_code: string" style="text;align=left;verticalAlign=top;spacingLeft=4;spacingRight=4;overflow=hidden;rotatable=0;points=[[0,0.5],[1,0.5]];portConstraint=eastwest;rounded=0;shadow=0;html=0;" parent="XQ9nvu6aSsjh0hOFuqJx-19" vertex="1">
          <mxGeometry y="78" width="160" height="26" as="geometry" />
        </mxCell>
        <mxCell id="XQ9nvu6aSsjh0hOFuqJx-25" value="" style="line;html=1;strokeWidth=1;align=left;verticalAlign=middle;spacingTop=-1;spacingLeft=3;spacingRight=3;rotatable=0;labelPosition=right;points=[];portConstraint=eastwest;" parent="XQ9nvu6aSsjh0hOFuqJx-19" vertex="1">
          <mxGeometry y="104" width="160" height="8" as="geometry" />
        </mxCell>
        <mxCell id="XQ9nvu6aSsjh0hOFuqJx-27" value="+ to_string() : string" style="text;align=left;verticalAlign=top;spacingLeft=4;spacingRight=4;overflow=hidden;rotatable=0;points=[[0,0.5],[1,0.5]];portConstraint=eastwest;" parent="XQ9nvu6aSsjh0hOFuqJx-19" vertex="1">
          <mxGeometry y="112" width="160" height="26" as="geometry" />
        </mxCell>
        <mxCell id="XQ9nvu6aSsjh0hOFuqJx-28" value="" style="endArrow=open;shadow=0;strokeWidth=1;rounded=0;curved=0;endFill=1;edgeStyle=elbowEdgeStyle;elbow=vertical;" parent="1" source="XQ9nvu6aSsjh0hOFuqJx-2" target="XQ9nvu6aSsjh0hOFuqJx-19" edge="1">
          <mxGeometry x="0.5" y="41" relative="1" as="geometry">
            <mxPoint x="605" y="342" as="sourcePoint" />
            <mxPoint x="765" y="342" as="targetPoint" />
            <mxPoint x="-40" y="32" as="offset" />
          </mxGeometry>
        </mxCell>
        <mxCell id="XQ9nvu6aSsjh0hOFuqJx-29" value="1" style="resizable=0;align=left;verticalAlign=bottom;labelBackgroundColor=none;fontSize=12;" parent="XQ9nvu6aSsjh0hOFuqJx-28" connectable="0" vertex="1">
          <mxGeometry x="-1" relative="1" as="geometry">
            <mxPoint x="-25" as="offset" />
          </mxGeometry>
        </mxCell>
        <mxCell id="XQ9nvu6aSsjh0hOFuqJx-30" value="1" style="resizable=0;align=right;verticalAlign=bottom;labelBackgroundColor=none;fontSize=12;" parent="XQ9nvu6aSsjh0hOFuqJx-28" connectable="0" vertex="1">
          <mxGeometry x="1" relative="1" as="geometry">
            <mxPoint x="20" as="offset" />
          </mxGeometry>
        </mxCell>
        <mxCell id="pg1mxWmUHJXe1H1death-60" style="edgeStyle=orthogonalEdgeStyle;rounded=0;orthogonalLoop=1;jettySize=auto;html=1;startArrow=none;startFill=0;endArrow=none;endFill=0;" parent="1" source="QH-RMa6fuv2VY8GXqJA8-5" target="XQ9nvu6aSsjh0hOFuqJx-15" edge="1">
          <mxGeometry relative="1" as="geometry" />
        </mxCell>
        <mxCell id="pg1mxWmUHJXe1H1death-67" style="edgeStyle=orthogonalEdgeStyle;rounded=0;orthogonalLoop=1;jettySize=auto;html=1;endArrow=none;endFill=0;" parent="1" source="QH-RMa6fuv2VY8GXqJA8-5" target="XQ9nvu6aSsjh0hOFuqJx-8" edge="1">
          <mxGeometry relative="1" as="geometry">
            <Array as="points">
              <mxPoint x="310" y="640" />
            </Array>
          </mxGeometry>
        </mxCell>
        <mxCell id="QH-RMa6fuv2VY8GXqJA8-5" value="Lesson" style="swimlane;fontStyle=2;align=center;verticalAlign=top;childLayout=stackLayout;horizontal=1;startSize=26;horizontalStack=0;resizeParent=1;resizeLast=0;collapsible=1;marginBottom=0;rounded=0;shadow=0;strokeWidth=1;" parent="1" vertex="1">
          <mxGeometry x="500" y="600" width="190" height="160" as="geometry">
            <mxRectangle x="230" y="140" width="160" height="26" as="alternateBounds" />
          </mxGeometry>
        </mxCell>
        <mxCell id="QH-RMa6fuv2VY8GXqJA8-6" value="- denomination: string" style="text;align=left;verticalAlign=top;spacingLeft=4;spacingRight=4;overflow=hidden;rotatable=0;points=[[0,0.5],[1,0.5]];portConstraint=eastwest;" parent="QH-RMa6fuv2VY8GXqJA8-5" vertex="1">
          <mxGeometry y="26" width="190" height="26" as="geometry" />
        </mxCell>
        <mxCell id="QH-RMa6fuv2VY8GXqJA8-7" value="- start_date: date" style="text;align=left;verticalAlign=top;spacingLeft=4;spacingRight=4;overflow=hidden;rotatable=0;points=[[0,0.5],[1,0.5]];portConstraint=eastwest;rounded=0;shadow=0;html=0;" parent="QH-RMa6fuv2VY8GXqJA8-5" vertex="1">
          <mxGeometry y="52" width="190" height="26" as="geometry" />
        </mxCell>
        <mxCell id="QH-RMa6fuv2VY8GXqJA8-8" value="- end_date: date" style="text;align=left;verticalAlign=top;spacingLeft=4;spacingRight=4;overflow=hidden;rotatable=0;points=[[0,0.5],[1,0.5]];portConstraint=eastwest;rounded=0;shadow=0;html=0;" parent="QH-RMa6fuv2VY8GXqJA8-5" vertex="1">
          <mxGeometry y="78" width="190" height="26" as="geometry" />
        </mxCell>
        <mxCell id="QH-RMa6fuv2VY8GXqJA8-9" value="" style="line;html=1;strokeWidth=1;align=left;verticalAlign=middle;spacingTop=-1;spacingLeft=3;spacingRight=3;rotatable=0;labelPosition=right;points=[];portConstraint=eastwest;" parent="QH-RMa6fuv2VY8GXqJA8-5" vertex="1">
          <mxGeometry y="104" width="190" height="24" as="geometry" />
        </mxCell>
        <mxCell id="pg1mxWmUHJXe1H1death-15" value="+ get_details() : string" style="text;align=left;verticalAlign=top;spacingLeft=4;spacingRight=4;overflow=hidden;rotatable=0;points=[[0,0.5],[1,0.5]];portConstraint=eastwest;" parent="QH-RMa6fuv2VY8GXqJA8-5" vertex="1">
          <mxGeometry y="128" width="190" height="26" as="geometry" />
        </mxCell>
        <mxCell id="Fji2wCADDdwevzrT1Mn8-7" value="Absence" style="swimlane;fontStyle=0;align=center;verticalAlign=top;childLayout=stackLayout;horizontal=1;startSize=26;horizontalStack=0;resizeParent=1;resizeLast=0;collapsible=1;marginBottom=0;rounded=0;shadow=0;strokeWidth=1;" parent="1" vertex="1">
          <mxGeometry x="20" y="705" width="190" height="215" as="geometry">
            <mxRectangle x="130" y="380" width="160" height="26" as="alternateBounds" />
          </mxGeometry>
        </mxCell>
        <mxCell id="pg1mxWmUHJXe1H1death-17" value="- date : date" style="text;align=left;verticalAlign=top;spacingLeft=4;spacingRight=4;overflow=hidden;rotatable=0;points=[[0,0.5],[1,0.5]];portConstraint=eastwest;" parent="Fji2wCADDdwevzrT1Mn8-7" vertex="1">
          <mxGeometry y="26" width="190" height="26" as="geometry" />
        </mxCell>
        <mxCell id="pg1mxWmUHJXe1H1death-18" value="- reason : string " style="text;align=left;verticalAlign=top;spacingLeft=4;spacingRight=4;overflow=hidden;rotatable=0;points=[[0,0.5],[1,0.5]];portConstraint=eastwest;" parent="Fji2wCADDdwevzrT1Mn8-7" vertex="1">
          <mxGeometry y="52" width="190" height="26" as="geometry" />
        </mxCell>
        <mxCell id="Fji2wCADDdwevzrT1Mn8-8" value="" style="line;html=1;strokeWidth=1;align=left;verticalAlign=middle;spacingTop=-1;spacingLeft=3;spacingRight=3;rotatable=0;labelPosition=right;points=[];portConstraint=eastwest;" parent="Fji2wCADDdwevzrT1Mn8-7" vertex="1">
          <mxGeometry y="78" width="190" height="20" as="geometry" />
        </mxCell>
        <mxCell id="pg1mxWmUHJXe1H1death-22" value="+ add_absence() : void" style="text;align=left;verticalAlign=top;spacingLeft=4;spacingRight=4;overflow=hidden;rotatable=0;points=[[0,0.5],[1,0.5]];portConstraint=eastwest;" parent="Fji2wCADDdwevzrT1Mn8-7" vertex="1">
          <mxGeometry y="98" width="190" height="26" as="geometry" />
        </mxCell>
        <mxCell id="pg1mxWmUHJXe1H1death-23" value="+ modify_absence() : void" style="text;align=left;verticalAlign=top;spacingLeft=4;spacingRight=4;overflow=hidden;rotatable=0;points=[[0,0.5],[1,0.5]];portConstraint=eastwest;" parent="Fji2wCADDdwevzrT1Mn8-7" vertex="1">
          <mxGeometry y="124" width="190" height="26" as="geometry" />
        </mxCell>
        <mxCell id="pg1mxWmUHJXe1H1death-24" value="+ delete_absence() : void" style="text;align=left;verticalAlign=top;spacingLeft=4;spacingRight=4;overflow=hidden;rotatable=0;points=[[0,0.5],[1,0.5]];portConstraint=eastwest;" parent="Fji2wCADDdwevzrT1Mn8-7" vertex="1">
          <mxGeometry y="150" width="190" height="26" as="geometry" />
        </mxCell>
        <mxCell id="pg1mxWmUHJXe1H1death-25" value="+ consult_absence() : void" style="text;align=left;verticalAlign=top;spacingLeft=4;spacingRight=4;overflow=hidden;rotatable=0;points=[[0,0.5],[1,0.5]];portConstraint=eastwest;" parent="Fji2wCADDdwevzrT1Mn8-7" vertex="1">
          <mxGeometry y="176" width="190" height="26" as="geometry" />
        </mxCell>
        <mxCell id="qVerp7B6_mH-gPQAltYo-1" style="edgeStyle=orthogonalEdgeStyle;rounded=0;orthogonalLoop=1;jettySize=auto;html=1;endArrow=block;endFill=0;" parent="1" source="pg1mxWmUHJXe1H1death-7" target="XQ9nvu6aSsjh0hOFuqJx-2" edge="1">
          <mxGeometry relative="1" as="geometry" />
        </mxCell>
        <mxCell id="pg1mxWmUHJXe1H1death-7" value="Parent" style="swimlane;fontStyle=0;align=center;verticalAlign=top;childLayout=stackLayout;horizontal=1;startSize=26;horizontalStack=0;resizeParent=1;resizeLast=0;collapsible=1;marginBottom=0;rounded=0;shadow=0;strokeWidth=1;" parent="1" vertex="1">
          <mxGeometry x="35" y="290" width="160" height="96" as="geometry">
            <mxRectangle x="130" y="380" width="160" height="26" as="alternateBounds" />
          </mxGeometry>
        </mxCell>
        <mxCell id="pg1mxWmUHJXe1H1death-8" value="- student : Student(id)" style="text;align=left;verticalAlign=top;spacingLeft=4;spacingRight=4;overflow=hidden;rotatable=0;points=[[0,0.5],[1,0.5]];portConstraint=eastwest;" parent="pg1mxWmUHJXe1H1death-7" vertex="1">
          <mxGeometry y="26" width="160" height="26" as="geometry" />
        </mxCell>
        <mxCell id="pg1mxWmUHJXe1H1death-9" value="" style="line;html=1;strokeWidth=1;align=left;verticalAlign=middle;spacingTop=-1;spacingLeft=3;spacingRight=3;rotatable=0;labelPosition=right;points=[];portConstraint=eastwest;" parent="pg1mxWmUHJXe1H1death-7" vertex="1">
          <mxGeometry y="52" width="160" height="18" as="geometry" />
        </mxCell>
        <mxCell id="pg1mxWmUHJXe1H1death-10" value="+ get_details() : string" style="text;align=left;verticalAlign=top;spacingLeft=4;spacingRight=4;overflow=hidden;rotatable=0;points=[[0,0.5],[1,0.5]];portConstraint=eastwest;" parent="pg1mxWmUHJXe1H1death-7" vertex="1">
          <mxGeometry y="70" width="160" height="26" as="geometry" />
        </mxCell>
        <mxCell id="pg1mxWmUHJXe1H1death-66" style="edgeStyle=orthogonalEdgeStyle;rounded=0;orthogonalLoop=1;jettySize=auto;html=1;endArrow=none;endFill=0;dashed=1;" parent="1" source="pg1mxWmUHJXe1H1death-44" target="XQ9nvu6aSsjh0hOFuqJx-8" edge="1">
          <mxGeometry relative="1" as="geometry">
            <Array as="points">
              <mxPoint x="370" y="640" />
              <mxPoint x="310" y="640" />
            </Array>
          </mxGeometry>
        </mxCell>
        <mxCell id="pg1mxWmUHJXe1H1death-44" value="Academic_Record" style="swimlane;fontStyle=2;align=center;verticalAlign=top;childLayout=stackLayout;horizontal=1;startSize=26;horizontalStack=0;resizeParent=1;resizeLast=0;collapsible=1;marginBottom=0;rounded=0;shadow=0;strokeWidth=1;" parent="1" vertex="1">
          <mxGeometry x="270" y="705" width="190" height="158" as="geometry">
            <mxRectangle x="230" y="140" width="160" height="26" as="alternateBounds" />
          </mxGeometry>
        </mxCell>
        <mxCell id="pg1mxWmUHJXe1H1death-45" value="- score : int" style="text;align=left;verticalAlign=top;spacingLeft=4;spacingRight=4;overflow=hidden;rotatable=0;points=[[0,0.5],[1,0.5]];portConstraint=eastwest;" parent="pg1mxWmUHJXe1H1death-44" vertex="1">
          <mxGeometry y="26" width="190" height="26" as="geometry" />
        </mxCell>
        <mxCell id="pg1mxWmUHJXe1H1death-49" value="- comment : string" style="text;align=left;verticalAlign=top;spacingLeft=4;spacingRight=4;overflow=hidden;rotatable=0;points=[[0,0.5],[1,0.5]];portConstraint=eastwest;" parent="pg1mxWmUHJXe1H1death-44" vertex="1">
          <mxGeometry y="52" width="190" height="26" as="geometry" />
        </mxCell>
        <mxCell id="SZ61hMrvSY9KgbIOHrhg-19" value="- level_class: string" style="text;align=left;verticalAlign=top;spacingLeft=4;spacingRight=4;overflow=hidden;rotatable=0;points=[[0,0.5],[1,0.5]];portConstraint=eastwest;" parent="pg1mxWmUHJXe1H1death-44" vertex="1">
          <mxGeometry y="78" width="190" height="26" as="geometry" />
        </mxCell>
        <mxCell id="pg1mxWmUHJXe1H1death-50" value="" style="line;html=1;strokeWidth=1;align=left;verticalAlign=middle;spacingTop=-1;spacingLeft=3;spacingRight=3;rotatable=0;labelPosition=right;points=[];portConstraint=eastwest;" parent="pg1mxWmUHJXe1H1death-44" vertex="1">
          <mxGeometry y="104" width="190" height="28" as="geometry" />
        </mxCell>
        <mxCell id="pg1mxWmUHJXe1H1death-51" value="+ get_details() : string" style="text;align=left;verticalAlign=top;spacingLeft=4;spacingRight=4;overflow=hidden;rotatable=0;points=[[0,0.5],[1,0.5]];portConstraint=eastwest;" parent="pg1mxWmUHJXe1H1death-44" vertex="1">
          <mxGeometry y="132" width="190" height="26" as="geometry" />
        </mxCell>
        <mxCell id="SZ61hMrvSY9KgbIOHrhg-20" value="1..n" style="resizable=0;align=left;verticalAlign=bottom;labelBackgroundColor=none;fontSize=12;direction=south;" parent="1" connectable="0" vertex="1">
          <mxGeometry x="160" y="480" as="geometry" />
        </mxCell>
        <mxCell id="SZ61hMrvSY9KgbIOHrhg-21" value="0..n" style="resizable=0;align=left;verticalAlign=bottom;labelBackgroundColor=none;fontSize=12;" parent="1" connectable="0" vertex="1">
          <mxGeometry x="180" y="490" as="geometry">
            <mxPoint x="-57" y="-83" as="offset" />
          </mxGeometry>
        </mxCell>
        <mxCell id="SZ61hMrvSY9KgbIOHrhg-22" value="" style="endArrow=none;html=1;rounded=0;entryX=0.457;entryY=1.038;entryDx=0;entryDy=0;entryPerimeter=0;exitX=-0.006;exitY=0.745;exitDx=0;exitDy=0;exitPerimeter=0;startArrow=none;startFill=0;" parent="1" source="pg1mxWmUHJXe1H1death-65" target="pg1mxWmUHJXe1H1death-10" edge="1">
          <mxGeometry width="50" height="50" relative="1" as="geometry">
            <mxPoint x="110" y="500" as="sourcePoint" />
            <mxPoint x="130" y="430" as="targetPoint" />
            <Array as="points">
              <mxPoint x="108" y="500" />
            </Array>
          </mxGeometry>
        </mxCell>
        <mxCell id="SZ61hMrvSY9KgbIOHrhg-23" value="" style="endArrow=none;html=1;rounded=0;entryX=0.336;entryY=1.039;entryDx=0;entryDy=0;entryPerimeter=0;" parent="1" target="QH-RMa6fuv2VY8GXqJA8-4" edge="1">
          <mxGeometry width="50" height="50" relative="1" as="geometry">
            <mxPoint x="120" y="700" as="sourcePoint" />
            <mxPoint x="170" y="630" as="targetPoint" />
            <Array as="points">
              <mxPoint x="120" y="630" />
              <mxPoint x="266" y="630" />
            </Array>
          </mxGeometry>
        </mxCell>
        <mxCell id="SZ61hMrvSY9KgbIOHrhg-24" value="1..n" style="resizable=0;align=left;verticalAlign=bottom;labelBackgroundColor=none;fontSize=12;direction=south;" parent="1" connectable="0" vertex="1">
          <mxGeometry x="570" y="600" as="geometry" />
        </mxCell>
        <mxCell id="SZ61hMrvSY9KgbIOHrhg-25" value="1" style="resizable=0;align=left;verticalAlign=bottom;labelBackgroundColor=none;fontSize=12;direction=south;" parent="1" connectable="0" vertex="1">
          <mxGeometry x="640" y="560" as="geometry" />
        </mxCell>
        <mxCell id="SZ61hMrvSY9KgbIOHrhg-26" value="" style="endArrow=none;html=1;rounded=0;exitX=0.998;exitY=0.75;exitDx=0;exitDy=0;exitPerimeter=0;entryX=0;entryY=0.5;entryDx=0;entryDy=0;" parent="1" source="pg1mxWmUHJXe1H1death-65" target="QH-RMa6fuv2VY8GXqJA8-3" edge="1">
          <mxGeometry width="50" height="50" relative="1" as="geometry">
            <mxPoint x="460" y="518" as="sourcePoint" />
            <mxPoint x="540" y="500" as="targetPoint" />
          </mxGeometry>
        </mxCell>
        <mxCell id="SZ61hMrvSY9KgbIOHrhg-27" value="1" style="resizable=0;align=left;verticalAlign=bottom;labelBackgroundColor=none;fontSize=12;direction=south;" parent="1" connectable="0" vertex="1">
          <mxGeometry x="650" y="570" as="geometry">
            <mxPoint x="-91" y="-74" as="offset" />
          </mxGeometry>
        </mxCell>
        <mxCell id="SZ61hMrvSY9KgbIOHrhg-29" value="0..n" style="resizable=0;align=left;verticalAlign=bottom;labelBackgroundColor=none;fontSize=12;direction=south;" parent="1" connectable="0" vertex="1">
          <mxGeometry x="414" y="493" as="geometry" />
        </mxCell>
        <mxCell id="SZ61hMrvSY9KgbIOHrhg-30" value="&lt;br&gt;cardinalités à revoir&lt;div&gt;&lt;br&gt;&lt;/div&gt;" style="shape=note;whiteSpace=wrap;html=1;backgroundOutline=1;darkOpacity=0.05;" parent="1" vertex="1">
          <mxGeometry x="530" y="810" width="190" height="100" as="geometry" />
        </mxCell>
        <mxCell id="r_dGPDfuyOMvuW0uQrlK-1" value="&lt;div style=&quot;font-size: 14px;&quot;&gt;&lt;span style=&quot;background-color: initial;&quot;&gt;&lt;font color=&quot;#8b230e&quot;&gt;DIAGRAMME DE CLASSES&lt;/font&gt;&lt;/span&gt;&lt;br&gt;&lt;/div&gt;" style="shape=module;align=left;spacingLeft=20;align=center;verticalAlign=middle;whiteSpace=wrap;html=1;fillColor=#ffe6cc;strokeColor=#d79b00;fontStyle=1;fontSize=14;fontColor=#2d678b;" vertex="1" parent="1">
          <mxGeometry x="20" y="-60" width="250" height="50" as="geometry" />
        </mxCell>
      </root>
    </mxGraphModel>
  </diagram>
</mxfile>
